<?xml version="1.0" encoding="UTF-8" standalone="no"?>
<svg width="121px" height="121px" viewBox="0 0 121 121" version="1.1" xmlns="http://www.w3.org/2000/svg" xmlns:xlink="http://www.w3.org/1999/xlink" xmlns:sketch="http://www.bohemiancoding.com/sketch/ns">
    <!-- Generator: Sketch 3.3.2 (12043) - http://www.bohemiancoding.com/sketch -->
    <title>XXHDPI</title>
    <desc>Created with Sketch.</desc>
    <defs></defs>
    <g id="Page-1" stroke="none" stroke-width="1" fill="none" fill-rule="evenodd" sketch:type="MSPage">
        <g id="XXHDPI" sketch:type="MSArtboardGroup" transform="translate(-132.000000, -538.000000)" fill="#D23C3C">
            <path d="M189.25,546.508573 C190.450926,546.426452 191.662948,546.384718 192.884718,546.384718 C221.879667,546.384718 245.384718,569.889768 245.384718,598.884718 C245.384718,600.145593 245.340269,601.396087 245.252852,602.634718 L222.652616,602.634718 C222.805805,601.406239 222.884718,600.154694 222.884718,598.884718 C222.884718,582.316175 209.45326,568.884718 192.884718,568.884718 C191.654444,568.884718 190.441466,568.958773 189.25,569.10267 L189.25,569.10267 L189.25,546.508573 L189.25,546.508573 Z M140.508573,595.25 C140.426452,596.450926 140.384718,597.662948 140.384718,598.884718 C140.384718,627.879667 163.889768,651.384718 192.884718,651.384718 C194.145593,651.384718 195.396087,651.340269 196.634718,651.252852 L196.634718,628.652616 L196.634718,628.652616 C195.406239,628.805805 194.154694,628.884718 192.884718,628.884718 C176.316175,628.884718 162.884718,615.45326 162.884718,598.884718 C162.884718,597.654444 162.958773,596.441466 163.10267,595.25 L140.508573,595.25 L140.508573,595.25 Z M192.884718,658.884718 C226.021803,658.884718 252.884718,632.021803 252.884718,598.884718 C252.884718,565.747633 226.021803,538.884718 192.884718,538.884718 C159.747633,538.884718 132.884718,565.747633 132.884718,598.884718 C132.884718,632.021803 159.747633,658.884718 192.884718,658.884718 Z M192.884718,621.384718 C205.311124,621.384718 215.384718,611.311124 215.384718,598.884718 C215.384718,586.458311 205.311124,576.384718 192.884718,576.384718 C180.458311,576.384718 170.384718,586.458311 170.384718,598.884718 C170.384718,611.311124 180.458311,621.384718 192.884718,621.384718 Z" sketch:type="MSShapeGroup"></path>
        </g>
    </g>
</svg>